<?xml version="1.0" encoding="UTF-8"?> <svg xmlns="http://www.w3.org/2000/svg" width="749" height="449" viewBox="0 0 749 449" fill="none"><rect opacity="0.5" width="749" height="449" fill="#F4F4F4"></rect><g clip-path="url(#clip0_6949_16626)"><path d="M374.499 325.685C373.831 325.685 373.248 325.685 372.58 325.685V324.186C374.582 324.186 376.584 324.186 378.586 324.102L378.669 325.601C377.251 325.685 375.917 325.685 374.499 325.685ZM368.076 325.518C366.074 325.352 363.989 325.185 361.988 324.935L362.154 323.436C364.156 323.686 366.158 323.853 368.076 324.019V325.518ZM384.007 325.268L383.84 323.769C385.842 323.603 387.844 323.353 389.762 323.02L390.012 324.519C388.011 324.769 386.009 325.019 384.007 325.268ZM356.816 324.102C354.815 323.769 352.813 323.353 350.894 322.853L351.228 321.354C353.146 321.854 355.148 322.187 357.067 322.603L356.816 324.102ZM395.267 323.519L394.933 322.02C396.852 321.604 398.853 321.104 400.772 320.605L401.189 322.02C399.187 322.603 397.185 323.103 395.267 323.519ZM345.723 321.521C343.805 320.938 341.803 320.355 339.968 319.605L340.469 318.19C342.303 318.856 344.222 319.522 346.14 320.022L345.723 321.521ZM406.193 320.605L405.693 319.189C407.611 318.606 409.446 317.856 411.281 317.107L411.865 318.523C410.03 319.272 408.112 319.938 406.193 320.605ZM334.964 317.69C333.129 316.94 331.21 316.024 329.459 315.192L330.126 313.859C331.878 314.775 333.713 315.608 335.547 316.357L334.964 317.69ZM416.786 316.357L416.119 315.025C417.954 314.192 419.705 313.276 421.457 312.36L422.207 313.692C420.456 314.609 418.621 315.525 416.786 316.357ZM324.788 312.693C323.036 311.694 321.285 310.611 319.617 309.528L320.451 308.279C322.119 309.362 323.871 310.361 325.539 311.361L324.788 312.693ZM426.878 311.028L426.128 309.778C427.796 308.779 429.547 307.613 431.132 306.53L431.966 307.78C430.298 308.946 428.546 310.028 426.878 311.028ZM315.113 306.53C313.445 305.365 311.86 304.115 310.275 302.866L311.193 301.7C312.694 302.949 314.362 304.199 315.947 305.365L315.113 306.53ZM436.22 304.615L435.302 303.449C436.887 302.2 438.472 300.951 439.973 299.701L440.974 300.867C439.389 302.117 437.805 303.449 436.22 304.615ZM306.272 299.368C304.77 298.036 303.269 296.62 301.934 295.121L303.019 294.038C304.437 295.454 305.855 296.87 307.356 298.202L306.272 299.368ZM444.894 297.203L443.81 296.12C445.228 294.705 446.646 293.289 447.98 291.873L449.065 292.873C447.73 294.372 446.312 295.787 444.894 297.203ZM298.348 291.29C297.013 289.791 295.679 288.209 294.511 286.627L295.679 285.71C296.93 287.293 298.181 288.792 299.516 290.291L298.348 291.29ZM452.568 288.875L451.4 287.876C452.651 286.377 453.902 284.794 455.07 283.129L456.321 284.045C455.153 285.71 453.902 287.293 452.568 288.875ZM291.258 282.296C290.091 280.63 289.006 278.965 287.922 277.216L289.173 276.466C290.174 278.132 291.342 279.798 292.426 281.463L291.258 282.296ZM459.407 279.714L458.156 278.882C459.24 277.216 460.324 275.467 461.325 273.801L462.66 274.551C461.576 276.3 460.491 278.049 459.407 279.714ZM285.253 272.636C284.252 270.887 283.335 269.055 282.501 267.222L283.835 266.556C284.669 268.388 285.587 270.137 286.504 271.886L285.253 272.636ZM465.079 269.887L463.744 269.221C464.662 267.472 465.496 265.64 466.246 263.808L467.664 264.391C466.83 266.223 465.996 268.055 465.079 269.887ZM280.415 262.392C279.665 260.56 278.914 258.645 278.33 256.729L279.748 256.229C280.415 258.145 281.083 259.977 281.833 261.809L280.415 262.392ZM469.583 259.394L468.165 258.894C468.832 257.062 469.499 255.147 470.083 253.231L471.501 253.648C471.001 255.563 470.333 257.562 469.583 259.394ZM276.746 251.649C276.162 249.734 275.745 247.735 275.244 245.736L276.746 245.403C277.163 247.319 277.663 249.317 278.163 251.233L276.746 251.649ZM472.919 248.568L471.418 248.235C471.918 246.319 472.335 244.32 472.669 242.405L474.17 242.655C473.836 244.57 473.419 246.569 472.919 248.568ZM274.243 240.573C273.91 238.574 273.659 236.575 273.493 234.577L274.994 234.41C275.161 236.409 275.494 238.408 275.745 240.323L274.243 240.573ZM475.004 237.325L473.503 237.158C473.753 235.16 473.92 233.161 474.087 231.246L475.588 231.329C475.505 233.328 475.254 235.326 475.004 237.325ZM273.076 229.247C272.992 227.665 272.992 225.999 272.992 224.417C272.992 224 272.992 223.584 272.992 223.167H274.494C274.494 223.584 274.494 224 274.494 224.417C274.494 225.999 274.494 227.581 274.577 229.164L273.076 229.247ZM475.838 225.999H474.337C474.337 225.416 474.337 224.916 474.337 224.333C474.337 222.918 474.337 221.419 474.253 220.003L475.755 219.919C475.838 221.335 475.838 222.834 475.838 224.333C475.838 224.916 475.838 225.416 475.838 225.999ZM274.744 218.004L273.242 217.921C273.409 215.922 273.576 213.84 273.826 211.841L275.328 212.008C274.994 214.007 274.827 216.005 274.744 218.004ZM473.92 214.756C473.753 212.757 473.503 210.759 473.169 208.843L474.671 208.593C475.004 210.592 475.254 212.591 475.421 214.59L473.92 214.756ZM276.078 206.845L274.577 206.595C274.911 204.596 275.328 202.597 275.828 200.682L277.329 201.015C276.829 202.93 276.412 204.929 276.078 206.845ZM472.168 203.763C471.751 201.848 471.251 199.849 470.75 197.934L472.168 197.517C472.669 199.433 473.169 201.431 473.586 203.43L472.168 203.763ZM278.664 195.935L277.246 195.519C277.83 193.603 278.497 191.688 279.164 189.772L280.582 190.272C279.832 192.187 279.164 194.019 278.664 195.935ZM469.249 192.937C468.582 191.021 467.915 189.189 467.164 187.357L468.582 186.774C469.332 188.606 470 190.522 470.667 192.437L469.249 192.937ZM282.417 185.442L280.999 184.859C281.75 183.027 282.667 181.111 283.585 179.362L284.919 180.029C284.085 181.777 283.251 183.61 282.417 185.442ZM465.079 182.527C464.245 180.695 463.327 178.946 462.41 177.197L463.744 176.447C464.662 178.196 465.579 180.029 466.497 181.861L465.079 182.527ZM287.422 175.365L286.087 174.615C287.088 172.866 288.172 171.118 289.257 169.452L290.508 170.285C289.423 171.867 288.422 173.616 287.422 175.365ZM459.824 172.7C458.823 171.034 457.739 169.285 456.571 167.703L457.822 166.87C458.99 168.536 460.074 170.201 461.159 171.95L459.824 172.7ZM293.51 165.954L292.259 165.038C293.427 163.373 294.678 161.79 296.013 160.208L297.18 161.124C295.846 162.706 294.678 164.289 293.51 165.954ZM453.485 163.456C452.234 161.874 450.983 160.374 449.648 158.875L450.816 157.876C452.151 159.375 453.402 160.957 454.653 162.54L453.485 163.456ZM300.6 157.21L299.516 156.21C300.85 154.711 302.268 153.296 303.769 151.88L304.854 152.963C303.352 154.295 301.934 155.794 300.6 157.21ZM446.145 154.961C444.727 153.546 443.309 152.13 441.892 150.797L442.892 149.715C444.394 151.047 445.812 152.463 447.23 153.962L446.145 154.961ZM308.607 149.382L307.606 148.216C309.107 146.883 310.692 145.551 312.277 144.385L313.194 145.551C311.61 146.8 310.108 148.049 308.607 149.382ZM437.888 147.383C436.387 146.134 434.802 144.884 433.134 143.719L434.051 142.469C435.719 143.635 437.304 144.884 438.889 146.217L437.888 147.383ZM317.448 142.469L316.614 141.22C318.282 140.054 319.95 138.972 321.702 137.889L322.453 139.138C320.784 140.221 319.033 141.387 317.448 142.469ZM428.797 140.72C427.128 139.638 425.377 138.555 423.709 137.639L424.459 136.307C426.211 137.306 427.963 138.389 429.631 139.471L428.797 140.72ZM326.957 136.64L326.206 135.307C327.957 134.308 329.792 133.392 331.627 132.559L332.295 133.892C330.543 134.808 328.708 135.64 326.957 136.64ZM419.121 135.141C417.37 134.225 415.535 133.392 413.7 132.642L414.284 131.227C416.119 132.059 417.954 132.892 419.789 133.808L419.121 135.141ZM337.132 131.81L336.548 130.394C338.383 129.644 340.302 128.895 342.22 128.312L342.72 129.728C340.886 130.394 338.967 131.143 337.132 131.81ZM408.779 130.727C406.944 130.061 405.026 129.394 403.107 128.811L403.524 127.396C405.443 127.979 407.361 128.645 409.279 129.311L408.779 130.727ZM347.725 128.229L347.308 126.813C349.226 126.313 351.228 125.813 353.23 125.397L353.563 126.896C351.562 127.229 349.643 127.729 347.725 128.229ZM398.019 127.479C396.101 126.979 394.099 126.563 392.181 126.23L392.431 124.731C394.433 125.064 396.435 125.48 398.353 125.98L398.019 127.479ZM358.651 125.897L358.401 124.398C360.403 124.065 362.405 123.815 364.406 123.648L364.573 125.147C362.655 125.314 360.653 125.564 358.651 125.897ZM387.01 125.397C385.008 125.147 383.006 124.981 381.088 124.814L381.171 123.315C383.173 123.482 385.258 123.648 387.176 123.898L387.01 125.397ZM369.828 124.731L369.744 123.232C371.246 123.148 372.83 123.148 374.332 123.148C374.832 123.148 375.333 123.148 375.833 123.148V124.647C375.333 124.647 374.832 124.647 374.332 124.647C372.83 124.647 371.329 124.647 369.828 124.731Z" fill="#3661AB"></path><path d="M325.289 166.363H328.709C329.126 166.363 329.459 166.53 329.793 166.78C330.043 167.029 330.21 167.446 330.21 167.862V192.43C330.21 192.846 330.043 193.179 329.793 193.512C329.543 193.762 329.126 193.929 328.709 193.929H325.289V199.175H347.142V193.929H343.722C343.305 193.929 342.971 193.762 342.638 193.512C342.388 193.263 342.221 192.846 342.221 192.43V167.862C342.221 167.446 342.388 167.113 342.638 166.78C342.888 166.53 343.305 166.363 343.722 166.363H347.142V161.117H325.289V166.363ZM412.783 160.45H408.279C403.275 160.45 398.52 162.449 394.934 165.947C391.431 169.445 389.429 174.275 389.429 179.272V181.52C389.429 186.517 391.431 191.264 394.934 194.845C398.437 198.343 403.275 200.341 408.279 200.341H412.783C417.788 200.341 422.542 198.343 426.128 194.845C429.631 191.347 431.633 186.517 431.633 181.52V179.272C431.633 174.275 429.631 169.528 426.128 165.947C422.542 162.449 417.788 160.45 412.783 160.45ZM410.531 194.512C406.361 194.512 403.024 190.931 403.024 180.188C403.024 169.445 406.361 165.863 410.531 165.863C414.701 165.863 418.038 169.528 418.038 180.188C418.038 190.931 414.701 194.512 410.531 194.512ZM375.333 176.024C369.078 174.191 361.988 174.441 361.988 170.277C361.988 166.113 367.827 166.197 367.827 166.197C370.829 166.197 373.165 166.696 375.083 168.445C377.001 170.194 378.086 174.275 378.086 174.275H384.091V160.783H378.086V163.365C376.001 162.949 374.666 160.117 365.491 160.117C353.981 160.117 350.228 167.612 350.228 171.943C350.228 176.273 351.145 181.354 360.487 183.935C369.828 186.517 373.915 187.599 373.915 191.097C373.915 193.762 371.497 195.011 367.41 195.011C364.407 195.011 360.153 192.763 357.317 187.933V185.684H351.312V199.259H357.317C357.317 199.259 357.734 197.177 359.403 197.926C360.57 198.426 361.488 200.258 370.412 200.258C383.34 200.258 385.592 192.513 385.592 187.516C385.592 181.603 381.589 177.856 375.333 176.024Z" fill="#3661AB"></path><path d="M348.563 146.129C349.648 147.544 351.149 148.71 352.734 149.46C350.482 151.958 348.563 154.623 346.895 157.538L348.563 158.454C350.232 155.539 352.233 152.791 354.569 150.293C356.737 151.125 358.989 151.792 361.241 152.208C360.407 154.04 359.657 155.872 359.073 157.705L360.824 158.288C361.492 156.289 362.242 154.373 363.16 152.541C366.579 153.041 369.999 153.374 373.419 153.374V156.705H375.337V153.374C378.757 153.374 382.176 153.041 385.596 152.541C386.514 154.457 387.264 156.372 387.932 158.288L389.683 157.705C389.016 155.789 388.349 153.957 387.515 152.208C389.767 151.792 392.019 151.125 394.187 150.293C396.523 152.791 398.524 155.539 400.192 158.454L401.861 157.538C400.192 154.623 398.274 151.958 396.022 149.46C397.69 148.71 399.108 147.628 400.192 146.129C404.613 149.46 408.366 153.624 411.202 158.454L412.787 157.455C409.784 152.375 405.697 147.878 400.943 144.38L400.359 143.963C394.02 139.383 386.597 136.552 378.757 135.802C378.673 135.802 378.59 135.802 378.507 135.802C378.09 135.802 377.756 135.719 377.339 135.719C377.089 135.719 376.838 135.719 376.672 135.719C376.421 135.719 376.171 135.719 375.838 135.719C375.587 135.719 375.421 135.719 375.17 135.719C374.837 135.719 374.503 135.719 374.253 135.719C373.919 135.719 373.669 135.719 373.335 135.719C373.085 135.719 372.918 135.719 372.668 135.719C372.418 135.719 372.168 135.719 371.834 135.719C371.584 135.719 371.334 135.719 371.167 135.719C370.75 135.719 370.416 135.802 369.999 135.802C369.916 135.802 369.832 135.802 369.749 135.802C361.992 136.552 354.485 139.383 348.146 143.963L347.563 144.38C342.808 147.878 338.721 152.375 335.719 157.455L337.303 158.454C340.39 153.707 344.143 149.543 348.563 146.129ZM362.159 150.376C360.074 150.043 357.988 149.46 355.987 148.794C358.906 145.962 362.242 143.547 365.829 141.715C366.413 141.965 366.996 142.131 367.58 142.298C365.495 144.796 363.66 147.461 362.159 150.376ZM373.419 151.459C370.333 151.375 367.163 151.125 364.077 150.709C365.578 147.794 367.58 145.129 369.832 142.798C371 142.964 372.168 143.047 373.335 143.047V151.459H373.419ZM375.337 151.459V143.047C376.505 143.047 377.673 142.881 378.924 142.714C381.259 145.046 383.177 147.711 384.679 150.626C381.593 151.126 378.423 151.459 375.337 151.459ZM386.68 150.376C385.179 147.461 383.344 144.796 381.176 142.381C381.759 142.215 382.343 142.048 382.927 141.798C386.597 143.63 389.85 146.045 392.853 148.877C390.767 149.46 388.682 149.96 386.68 150.376ZM385.012 138.8C389.933 140.049 394.521 142.215 398.691 145.046C398.024 146.129 396.606 147.128 394.688 148.044C391.685 145.046 388.349 142.548 384.595 140.549C384.846 140.216 385.012 139.799 385.012 139.383C385.096 139.133 385.012 138.967 385.012 138.8ZM373.169 137.468C373.586 137.468 374.003 137.468 374.336 137.468C374.753 137.468 375.17 137.468 375.504 137.468C380.342 137.634 382.844 138.8 383.094 139.3C382.844 139.883 379.925 141.132 374.253 141.132C368.498 141.132 365.578 139.799 365.412 139.3C365.745 138.883 368.248 137.634 373.169 137.468ZM363.744 138.8C363.66 138.967 363.66 139.133 363.66 139.3C363.66 139.716 363.827 140.216 364.161 140.549C360.491 142.548 357.071 145.046 354.152 148.044C352.233 147.211 350.815 146.212 350.148 145.046C354.235 142.215 358.823 140.133 363.744 138.8ZM400.276 214.252C399.192 212.753 397.774 211.587 396.105 210.837C397.94 208.838 399.525 206.673 400.943 204.425L399.358 203.425C397.857 205.757 396.189 208.006 394.271 210.004C392.102 209.171 389.85 208.505 387.515 208.089C388.098 206.84 388.599 205.59 389.099 204.258L387.348 203.592C386.847 205.007 386.263 206.423 385.596 207.756C382.176 207.256 378.757 206.923 375.254 206.923V203.592H373.335V206.923C369.916 206.923 366.413 207.256 363.076 207.756C362.409 206.423 361.825 205.007 361.325 203.592L359.573 204.258C360.074 205.59 360.574 206.84 361.158 208.089C358.823 208.505 356.571 209.171 354.402 210.004C352.484 208.006 350.815 205.757 349.398 203.425L347.813 204.425C349.231 206.673 350.815 208.838 352.65 210.837C350.982 211.587 349.481 212.753 348.48 214.252C344.56 211.253 341.14 207.589 338.471 203.425L336.886 204.425C341.807 212.086 348.98 217.999 357.405 221.497C357.905 221.663 358.405 221.913 358.906 222.08C358.906 222.08 358.989 222.08 358.989 222.163C359.49 222.33 360.074 222.58 360.574 222.746C360.574 222.746 360.574 222.746 360.657 222.746C361.158 222.913 361.575 222.996 362.075 223.162C362.242 223.246 362.492 223.246 362.659 223.329C362.993 223.412 363.243 223.496 363.577 223.579C363.827 223.662 364.077 223.662 364.244 223.745C364.494 223.829 364.828 223.912 365.078 223.912C365.328 223.995 365.578 223.995 365.745 224.079C366.162 224.162 366.496 224.245 366.913 224.245C367.163 224.328 367.497 224.328 367.747 224.412C368.081 224.495 368.414 224.495 368.748 224.578C368.998 224.578 369.165 224.662 369.415 224.662C369.749 224.662 370.082 224.745 370.333 224.745C370.583 224.745 370.75 224.745 371 224.828C371.334 224.828 371.667 224.911 372.084 224.911C372.251 224.911 372.418 224.911 372.668 224.911C373.169 224.911 373.752 224.911 374.253 224.911C374.753 224.911 375.337 224.911 375.838 224.911C376.004 224.911 376.171 224.911 376.421 224.911C376.755 224.911 377.089 224.911 377.506 224.828C377.756 224.828 377.923 224.828 378.173 224.745C378.507 224.745 378.84 224.662 379.09 224.662C379.341 224.662 379.507 224.578 379.758 224.578C380.091 224.495 380.425 224.495 380.759 224.412C381.009 224.412 381.342 224.328 381.593 224.245C382.01 224.162 382.343 224.079 382.76 224.079C383.011 223.995 383.261 223.995 383.428 223.912C383.678 223.829 384.011 223.829 384.262 223.745C384.512 223.662 384.762 223.662 384.929 223.579C385.263 223.496 385.513 223.412 385.846 223.329C386.013 223.246 386.263 223.246 386.43 223.162C386.931 222.996 387.348 222.913 387.848 222.746C387.848 222.746 387.848 222.746 387.932 222.746C388.432 222.58 389.016 222.413 389.516 222.163C389.516 222.163 389.6 222.163 389.6 222.08C390.1 221.913 390.601 221.663 391.101 221.497C399.525 217.999 406.698 212.086 411.619 204.425L410.034 203.425C407.616 207.589 404.196 211.253 400.276 214.252ZM375.337 208.838C378.507 208.838 381.676 209.088 384.762 209.588C383.261 212.503 381.342 215.168 379.007 217.499C377.756 217.333 376.505 217.25 375.337 217.166V208.838ZM373.419 208.838V217.166C372.168 217.166 371 217.333 369.749 217.499C367.497 215.168 365.495 212.503 363.994 209.588C367.163 209.088 370.333 208.838 373.419 208.838ZM363.827 221.663C363.66 221.663 363.577 221.58 363.41 221.58C363.243 221.497 362.993 221.497 362.826 221.414C362.492 221.33 362.242 221.247 361.909 221.164C361.742 221.08 361.575 221.08 361.408 220.997C357.321 219.665 353.484 217.833 349.981 215.334C350.565 214.252 351.983 213.252 353.985 212.253C356.904 215.251 360.324 217.749 363.994 219.748C363.744 220.081 363.66 220.414 363.66 220.831C363.66 221.164 363.744 221.414 363.827 221.663ZM355.903 211.503C357.905 210.754 359.99 210.254 362.075 209.838C363.577 212.753 365.412 215.417 367.58 217.916C366.913 218.082 366.329 218.249 365.745 218.582C362.159 216.667 358.823 214.335 355.903 211.503ZM374.42 222.746C368.665 222.746 365.745 221.414 365.578 220.914C365.745 220.414 368.665 218.998 374.42 218.998C380.091 218.998 382.927 220.331 383.261 220.831C382.927 221.414 380.008 222.746 374.42 222.746ZM383.011 218.582C382.427 218.332 381.843 218.082 381.176 217.916C383.344 215.501 385.179 212.753 386.68 209.838C388.766 210.254 390.851 210.754 392.853 211.503C389.933 214.335 386.68 216.667 383.011 218.582ZM387.348 220.914C387.181 220.997 387.014 220.997 386.847 221.08C386.514 221.164 386.263 221.247 385.93 221.33C385.763 221.414 385.513 221.414 385.346 221.497C385.179 221.497 385.096 221.58 384.929 221.58C385.012 221.33 385.096 221.08 385.096 220.831C385.096 220.414 384.929 220.081 384.762 219.748C388.432 217.749 391.852 215.168 394.771 212.253C396.773 213.169 398.191 214.252 398.775 215.251C395.271 217.749 391.435 219.665 387.348 220.914Z" fill="#3661AB"></path><path d="M238.299 251.144H186.336L194.593 233.822L186.336 216.5H238.382V251.144H238.299Z" fill="#3661AB"></path><path d="M510.867 251.144H562.913L554.656 233.822L562.913 216.5H510.867V251.144Z" fill="#3661AB"></path><path d="M510.867 216.5L541.061 228.825L510.867 251.144V216.5Z" fill="#273475"></path><path d="M237.959 216.5L207.766 228.825L237.959 251.144V216.5Z" fill="#273475"></path><path d="M541.06 228.828H207.766V273.216H541.06V228.828Z" fill="#3661AB"></path><path d="M494.02 215.011L502.778 204.101L491.101 196.44L498.024 184.281L485.262 178.535L490.183 165.46L476.672 161.795L479.507 148.137L465.578 146.638L466.246 132.647L452.233 133.314L450.732 119.406L437.053 122.237L433.383 108.746L420.288 113.66L414.533 100.918L402.356 107.83L394.682 96.1709L383.839 104.999L374.414 94.6719L364.989 104.999L354.063 96.2542L346.39 107.913L334.212 101.001L328.457 113.743L315.362 108.746L311.692 122.237L298.014 119.406L296.512 133.314L282.5 132.647L283.167 146.638L269.238 148.137L272.074 161.795L258.562 165.46L263.483 178.535L250.722 184.281L257.645 196.44L245.968 204.101L254.725 215.011L244.383 224.422L245.884 225.754H269.572C269.572 225.338 269.572 224.838 269.572 224.422C269.572 196.69 280.581 170.04 300.266 150.386C319.95 130.732 346.556 119.739 374.414 119.739C402.189 119.739 428.879 130.732 448.563 150.386C468.247 170.04 479.257 196.606 479.257 224.422C479.257 224.838 479.257 225.338 479.257 225.754H502.945L504.446 224.422L494.02 215.011ZM485.262 270.226L485.429 270.142H468.748C460.157 287.798 446.728 302.705 430.047 313.115C413.366 323.525 394.099 329.021 374.414 329.021C354.73 329.021 335.463 323.525 318.782 313.115C302.101 302.705 288.672 287.798 280.081 270.142H263.4L263.566 270.226L258.645 283.301L272.157 286.965L269.322 300.623L283.251 302.122L282.583 316.113L296.596 315.446L298.097 329.354L311.776 326.523L315.446 340.014L328.541 335.1L334.296 347.842L346.473 340.93L354.147 352.589L365.073 343.845L374.498 354.172L383.923 343.845L394.849 352.589L402.523 340.93L414.7 347.842L420.455 335.1L433.55 340.014L437.053 326.523L450.732 329.354L452.233 315.446L466.246 316.113L465.578 302.122L479.507 300.623L476.672 286.965L490.183 283.301L485.262 270.226Z" fill="#3661AB"></path><path d="M273.242 257.398L283.835 247.904C284.419 247.404 284.919 246.821 285.42 246.238C285.92 245.655 286.254 244.906 286.254 244.073C286.254 243.656 286.17 243.24 286.003 242.824C285.837 242.407 285.586 242.157 285.253 241.824C284.586 241.325 283.751 240.991 282.917 241.075C282.417 241.075 282 241.158 281.583 241.325C281.166 241.491 280.749 241.741 280.415 242.074C279.831 242.74 279.414 243.656 279.414 244.572L273.659 244.156C273.743 242.907 273.993 241.658 274.577 240.492C275.077 239.492 275.744 238.576 276.578 237.91C277.496 237.161 278.497 236.661 279.581 236.328C280.749 235.995 282 235.828 283.334 235.828C284.502 235.828 285.67 235.995 286.838 236.328C287.838 236.661 288.839 237.161 289.673 237.827C290.507 238.493 291.091 239.409 291.508 240.409C292.009 241.574 292.176 242.74 292.176 243.99C292.176 244.822 292.092 245.572 291.925 246.321C291.759 246.988 291.508 247.654 291.175 248.237C290.841 248.82 290.507 249.319 290.007 249.819C289.59 250.319 289.09 250.818 288.589 251.235L280.332 258.314H292.426V263.394H273.409V257.398H273.242Z" fill="white"></path><path d="M307.858 241.658H294.43V236.328H314.364V241.408L303.521 263.561H296.765L307.858 241.658Z" fill="white"></path><path d="M315.867 249.908C315.867 248.242 316.034 246.576 316.284 244.994C316.534 243.412 317.118 241.913 317.869 240.497C318.62 239.165 319.704 237.999 320.955 237.166C322.456 236.25 324.208 235.833 325.959 235.917C327.711 235.833 329.463 236.333 330.964 237.166C332.215 237.999 333.299 239.165 334.05 240.497C334.801 241.913 335.384 243.412 335.635 244.994C335.885 246.66 336.052 248.242 336.052 249.908C336.052 251.573 335.885 253.239 335.635 254.821C335.384 256.403 334.801 257.903 334.05 259.318C333.299 260.651 332.215 261.817 330.964 262.649C329.463 263.566 327.711 263.982 325.959 263.899C324.208 263.982 322.456 263.482 320.955 262.649C319.704 261.817 318.62 260.651 317.869 259.318C317.118 257.903 316.534 256.403 316.284 254.821C315.951 253.239 315.867 251.573 315.867 249.908ZM321.622 249.908C321.622 250.657 321.622 251.49 321.706 252.489C321.789 253.489 321.956 254.405 322.206 255.404C322.456 256.237 322.873 257.07 323.457 257.736C323.791 258.069 324.124 258.319 324.542 258.485C324.959 258.652 325.376 258.735 325.876 258.735C326.293 258.735 326.794 258.652 327.211 258.485C327.628 258.319 328.045 258.069 328.295 257.736C328.879 257.07 329.379 256.237 329.629 255.404C329.88 254.488 330.13 253.489 330.13 252.489C330.213 251.49 330.213 250.657 330.213 249.908C330.213 249.158 330.213 248.325 330.13 247.326C330.046 246.327 329.88 245.411 329.629 244.411C329.379 243.578 328.962 242.746 328.295 242.079C327.961 241.746 327.628 241.496 327.211 241.33C326.794 241.163 326.376 241.08 325.876 241.08C325.459 241.08 324.959 241.163 324.542 241.33C324.124 241.496 323.707 241.746 323.457 242.079C322.873 242.746 322.456 243.578 322.206 244.411C321.956 245.327 321.706 246.327 321.706 247.326C321.622 248.409 321.622 249.241 321.622 249.908Z" fill="white"></path><path d="M337.469 249.908C337.469 248.242 337.636 246.576 337.886 244.994C338.136 243.412 338.72 241.913 339.471 240.497C340.221 239.165 341.305 237.999 342.557 237.166C344.058 236.25 345.809 235.833 347.561 235.917C349.313 235.833 351.064 236.333 352.565 237.166C353.817 237.999 354.901 239.165 355.651 240.497C356.402 241.913 356.986 243.412 357.236 244.994C357.486 246.66 357.653 248.242 357.653 249.908C357.653 251.573 357.486 253.239 357.236 254.821C356.986 256.403 356.402 257.903 355.651 259.318C354.901 260.651 353.817 261.817 352.565 262.649C351.064 263.566 349.313 263.982 347.561 263.899C345.809 263.982 344.058 263.482 342.557 262.649C341.305 261.817 340.221 260.651 339.471 259.318C338.72 257.903 338.136 256.403 337.886 254.821C337.636 253.239 337.469 251.573 337.469 249.908ZM343.224 249.908C343.224 250.657 343.224 251.49 343.307 252.489C343.391 253.489 343.557 254.405 343.808 255.404C344.058 256.237 344.475 257.07 345.059 257.736C345.392 258.069 345.726 258.319 346.143 258.485C346.56 258.652 346.977 258.735 347.478 258.735C347.895 258.735 348.395 258.652 348.812 258.485C349.229 258.319 349.646 258.069 349.896 257.736C350.48 257.07 350.981 256.237 351.231 255.404C351.481 254.488 351.731 253.489 351.731 252.489C351.815 251.49 351.815 250.657 351.815 249.908C351.815 249.158 351.815 248.325 351.731 247.326C351.648 246.327 351.481 245.411 351.231 244.411C350.981 243.578 350.564 242.746 349.896 242.079C349.563 241.746 349.229 241.496 348.812 241.33C348.395 241.163 347.978 241.08 347.478 241.08C347.061 241.08 346.56 241.163 346.143 241.33C345.726 241.496 345.309 241.746 345.059 242.079C344.475 242.746 344.058 243.578 343.808 244.411C343.557 245.327 343.307 246.327 343.307 247.326C343.224 248.409 343.224 249.241 343.224 249.908Z" fill="white"></path><path d="M368.909 242.819L363.487 247.649L360.234 243.901L369.159 236.406H374.58V263.555H369.076V242.819H368.909Z" fill="white"></path><path d="M381.586 247.901C381.586 247.402 381.669 246.985 381.836 246.486C382.003 246.069 382.253 245.653 382.587 245.32C382.92 244.987 383.337 244.737 383.755 244.57C384.172 244.404 384.672 244.32 385.172 244.32C385.673 244.32 386.09 244.404 386.59 244.57C387.007 244.737 387.424 244.987 387.758 245.32C388.092 245.653 388.342 246.069 388.509 246.486C388.676 246.902 388.759 247.402 388.759 247.901C388.759 248.401 388.676 248.817 388.509 249.317C388.342 249.733 388.092 250.15 387.758 250.483C387.424 250.816 387.007 251.066 386.59 251.233C386.173 251.399 385.673 251.482 385.172 251.482C384.672 251.482 384.255 251.399 383.755 251.233C383.337 251.066 382.92 250.816 382.587 250.483C382.253 250.15 382.003 249.733 381.836 249.317C381.669 248.901 381.586 248.401 381.586 247.901ZM381.586 260.227C381.586 259.727 381.669 259.311 381.836 258.811C382.003 258.395 382.253 257.978 382.587 257.645C382.92 257.312 383.337 257.062 383.755 256.896C384.172 256.729 384.672 256.646 385.172 256.646C385.673 256.646 386.09 256.729 386.59 256.896C387.007 257.062 387.424 257.312 387.758 257.645C388.092 257.978 388.342 258.395 388.509 258.811C388.676 259.227 388.759 259.727 388.759 260.227C388.759 260.726 388.676 261.143 388.509 261.643C388.342 262.059 388.092 262.475 387.758 262.808C387.424 263.142 387.007 263.391 386.59 263.558C386.173 263.724 385.673 263.808 385.172 263.808C384.672 263.808 384.255 263.724 383.755 263.558C383.337 263.391 382.92 263.142 382.587 262.808C382.253 262.475 382.003 262.059 381.836 261.643C381.669 261.143 381.586 260.726 381.586 260.227Z" fill="white"></path><path d="M391.516 257.398L402.108 247.904C402.692 247.404 403.193 246.821 403.693 246.238C404.194 245.655 404.527 244.906 404.527 244.073C404.527 243.656 404.444 243.24 404.277 242.824C404.11 242.407 403.86 242.157 403.526 241.824C402.859 241.325 402.025 240.991 401.191 241.075C400.69 241.075 400.273 241.158 399.856 241.325C399.439 241.491 399.022 241.741 398.689 242.074C398.105 242.74 397.688 243.656 397.688 244.572L391.933 244.156C392.016 242.907 392.266 241.658 392.85 240.492C393.351 239.492 394.018 238.576 394.852 237.91C395.769 237.161 396.77 236.661 397.855 236.328C399.022 235.995 400.273 235.828 401.524 235.828C402.692 235.828 403.86 235.995 404.944 236.328C405.945 236.661 406.946 237.161 407.78 237.827C408.614 238.493 409.198 239.409 409.615 240.409C410.115 241.574 410.282 242.74 410.282 243.99C410.282 244.822 410.199 245.572 410.032 246.321C409.865 246.988 409.615 247.654 409.281 248.237C408.948 248.82 408.614 249.319 408.114 249.819C407.697 250.319 407.196 250.818 406.696 251.235L398.438 258.314H410.532V263.394H391.516V257.398Z" fill="white"></path><path d="M412.531 249.908C412.531 248.242 412.698 246.576 412.948 244.994C413.199 243.412 413.782 241.913 414.533 240.497C415.284 239.165 416.368 237.999 417.619 237.166C419.12 236.25 420.872 235.833 422.624 235.917C424.375 235.833 426.127 236.333 427.628 237.166C428.879 237.999 429.963 239.165 430.714 240.497C431.465 241.913 432.048 243.412 432.299 244.994C432.549 246.66 432.716 248.242 432.716 249.908C432.716 251.573 432.549 253.239 432.299 254.821C432.048 256.403 431.465 257.903 430.714 259.318C429.963 260.651 428.879 261.817 427.628 262.649C426.127 263.566 424.375 263.982 422.624 263.899C420.872 263.982 419.12 263.482 417.619 262.649C416.368 261.817 415.284 260.651 414.533 259.318C413.782 257.903 413.199 256.403 412.948 254.821C412.698 253.239 412.531 251.573 412.531 249.908ZM418.286 249.908C418.286 250.657 418.286 251.49 418.37 252.489C418.453 253.489 418.62 254.405 418.87 255.404C419.12 256.237 419.537 257.07 420.121 257.736C420.455 258.069 420.789 258.319 421.206 258.485C421.623 258.652 422.04 258.735 422.54 258.735C422.957 258.735 423.458 258.652 423.875 258.485C424.292 258.319 424.709 258.069 424.959 257.736C425.543 257.07 426.043 256.237 426.293 255.404C426.544 254.488 426.71 253.489 426.794 252.489C426.877 251.49 426.877 250.657 426.877 249.908C426.877 249.158 426.877 248.325 426.794 247.326C426.71 246.327 426.544 245.411 426.293 244.411C426.043 243.578 425.626 242.746 424.959 242.079C424.625 241.746 424.292 241.496 423.875 241.33C423.458 241.163 423.041 241.08 422.54 241.08C422.123 241.08 421.623 241.163 421.206 241.33C420.789 241.496 420.372 241.746 420.121 242.079C419.537 242.746 419.12 243.578 418.87 244.411C418.62 245.327 418.37 246.327 418.37 247.326C418.286 248.409 418.286 249.241 418.286 249.908Z" fill="white"></path><path d="M443.979 242.819L438.558 247.649L435.305 243.901L444.229 236.406H449.651V263.555H444.146V242.819H443.979Z" fill="white"></path><path d="M462.829 247.074H464.747C465.248 247.074 465.832 247.074 466.332 246.99C466.833 246.907 467.333 246.74 467.75 246.574C468.167 246.324 468.501 246.074 468.751 245.658C469.001 245.158 469.168 244.658 469.168 244.075C469.168 243.659 469.085 243.326 468.918 242.91C468.751 242.576 468.501 242.243 468.167 241.993C467.5 241.411 466.666 241.161 465.748 241.161C464.914 241.161 464.164 241.411 463.496 241.91C462.912 242.41 462.495 242.993 462.329 243.742L455.99 242.41C456.24 241.327 456.74 240.328 457.408 239.412C457.991 238.579 458.742 237.913 459.576 237.413C460.494 236.913 461.411 236.497 462.412 236.247C463.496 235.997 464.581 235.914 465.665 235.914C466.833 235.914 468 236.081 469.168 236.33C470.252 236.58 471.253 237.08 472.087 237.746C472.921 238.412 473.589 239.162 474.089 240.078C474.589 241.161 474.84 242.327 474.84 243.493C474.84 244.908 474.423 246.241 473.672 247.407C472.838 248.489 471.587 249.239 470.169 249.489V249.572C470.92 249.655 471.67 249.905 472.337 250.321C472.921 250.655 473.505 251.154 473.922 251.737C474.339 252.32 474.673 252.986 474.923 253.653C475.173 254.402 475.257 255.152 475.257 255.901C475.257 257.15 475.006 258.4 474.506 259.482C474.006 260.482 473.255 261.314 472.421 262.064C471.503 262.73 470.419 263.313 469.335 263.563C468.084 263.896 466.833 264.063 465.581 264.063C463.329 264.146 461.161 263.563 459.326 262.397C458.408 261.814 457.658 260.981 457.074 260.065C456.49 259.149 456.073 258.15 455.906 257.067L461.995 255.651C462.162 256.567 462.579 257.317 463.246 257.983C463.997 258.566 464.998 258.899 465.999 258.816C466.499 258.899 466.999 258.816 467.5 258.649C468 258.483 468.417 258.233 468.751 257.9C469.335 257.234 469.668 256.318 469.668 255.402C469.668 254.735 469.502 254.152 469.168 253.653C468.834 253.236 468.417 252.903 467.917 252.737C467.333 252.487 466.749 252.403 466.165 252.403C465.498 252.403 464.914 252.32 464.247 252.32H462.912V247.074H462.829Z" fill="white"></path></g><defs><clipPath id="clip0_6949_16626"><rect width="377" height="259" fill="white" transform="translate(186 95)"></rect></clipPath></defs></svg> 